<?xml version="1.0" encoding="UTF-8" standalone="no"?>
<!-- Created with Inkscape (http://www.inkscape.org/) -->
<svg
   xmlns:dc="http://purl.org/dc/elements/1.1/"
   xmlns:cc="http://web.resource.org/cc/"
   xmlns:rdf="http://www.w3.org/1999/02/22-rdf-syntax-ns#"
   xmlns:svg="http://www.w3.org/2000/svg"
   xmlns="http://www.w3.org/2000/svg"
   xmlns:sodipodi="http://sodipodi.sourceforge.net/DTD/sodipodi-0.dtd"
   xmlns:inkscape="http://www.inkscape.org/namespaces/inkscape"
   width="697.19824"
   height="697.19824"
   id="svg2"
   sodipodi:version="0.32"
   inkscape:version="0.45.1"
   version="1.0"
   sodipodi:docbase="/home/garoth/Graphics"
   sodipodi:docname="cycle.svg"
   inkscape:output_extension="org.inkscape.output.svg.inkscape"
   inkscape:export-filename="/home/garoth/Desktop/cycle.png"
   inkscape:export-xdpi="3.0981145"
   inkscape:export-ydpi="3.0981145">
  <defs
     id="defs4" />
  <sodipodi:namedview
     id="base"
     pagecolor="#ffffff"
     bordercolor="#666666"
     borderopacity="1.0"
     gridtolerance="10000"
     guidetolerance="10"
     objecttolerance="10"
     inkscape:pageopacity="0.0"
     inkscape:pageshadow="2"
     inkscape:zoom="0.69557802"
     inkscape:cx="372.04724"
     inkscape:cy="411.16883"
     inkscape:document-units="px"
     inkscape:current-layer="layer1"
     showguides="true"
     inkscape:guide-bbox="true"
     inkscape:window-width="1280"
     inkscape:window-height="936"
     inkscape:window-x="0"
     inkscape:window-y="23" />
  <metadata
     id="metadata7">
    <rdf:RDF>
      <cc:Work
         rdf:about="">
        <dc:format>image/svg+xml</dc:format>
        <dc:type
           rdf:resource="http://purl.org/dc/dcmitype/StillImage" />
      </cc:Work>
    </rdf:RDF>
  </metadata>
  <g
     inkscape:groupmode="layer"
     id="layer2"
     inkscape:label="border"
     style="display:inline"
     transform="translate(-9.3765326,-189.08319)">
    <path
       sodipodi:type="inkscape:offset"
       inkscape:radius="15.992926"
       inkscape:original="M 361.625 263.53125 C 293.48818 264.04117 228.91168 291.82977 181.71875 338.9375 L 244.34375 400.59375 C 285.76966 359.5474 347.28903 340.98492 407.625 357.21875 C 465.46278 372.78044 508.2007 416.53038 525.0625 469.71875 L 473.75 483.46875 L 609.96875 619.6875 L 659.84375 433.59375 L 610 446.96875 C 585.22339 364.52097 519.62092 296.40169 430.4375 272.40625 C 407.44535 266.22004 384.33727 263.36128 361.625 263.53125 z "
       style="opacity:1;fill:#729fcf;fill-opacity:1;stroke:#204a87;stroke-width:10;stroke-linecap:round;stroke-linejoin:round;stroke-miterlimit:4;stroke-dasharray:none;stroke-dashoffset:0;stroke-opacity:1;display:inline"
       id="path5112"
       d="M 361.5,247.53125 C 289.09084,248.07314 220.53627,277.58548 170.40625,327.625 C 167.38863,330.64098 165.70102,334.73755 165.71862,339.00391 C 165.73623,343.27027 167.4576,347.35278 170.5,350.34375 L 233.125,412 C 239.36214,418.13765 249.3737,418.12372 255.59375,411.96875 C 293.10869,374.79754 348.7203,357.92578 403.46875,372.65625 C 450.1347,385.21207 485.77028,417.91654 503.84375,458.875 L 469.625,468.03125 C 464.10638,469.50754 459.79409,473.81509 458.31172,479.33208 C 456.82935,484.84907 458.40198,490.73784 462.4375,494.78125 L 598.65625,631 C 602.69966,635.03552 608.58843,636.60815 614.10542,635.12578 C 619.62241,633.64341 623.92996,629.33112 625.40625,623.8125 L 675.28125,437.71875 C 676.74897,432.20195 675.16508,426.3211 671.1252,422.28766 C 667.08532,418.25423 661.20195,416.67973 655.6875,418.15625 L 620.375,427.625 C 590.95466,346.74248 523.84233,280.98172 434.59375,256.96875 C 410.19914,250.4052 385.63533,247.35063 361.5,247.53125 z "
       transform="matrix(1.0706479,0,0,1.0706479,-32.284252,-22.512769)" />
    <path
       sodipodi:type="inkscape:offset"
       inkscape:radius="15.879399"
       inkscape:original="M 120.75 423.53125 L 70.875 609.625 L 118.5625 596.84375 C 160.18966 726.84966 297.29619 802.4823 430.4375 766.53125 L 431.21875 766.28125 C 475.01756 754.30777 513.06911 731.70928 543.34375 702 L 480.5625 640.53125 C 460.84669 659.46214 436.26719 673.85204 408.0625 681.5625 L 407.53125 681.71875 C 321.27593 705.00957 232.50006 657.17691 203.5625 574.09375 L 256.96875 559.78125 L 120.75 423.53125 z "
       style="opacity:1;fill:#729fcf;fill-opacity:1;stroke:#204a87;stroke-width:10;stroke-linecap:round;stroke-linejoin:round;stroke-miterlimit:4;stroke-dasharray:none;stroke-dashoffset:0;stroke-opacity:1;display:inline"
       id="path5117"
       d="M 120.53125,407.65625 C 113.42932,407.75002 107.25316,412.54803 105.40625,419.40625 L 55.53125,605.5 C 54.051246,610.98704 55.61613,616.8467 59.634716,620.86528 C 63.653302,624.88387 69.512956,626.44875 75,624.96875 L 108.5,616 C 157.88496,745.11302 298.32774,818.66135 434.5625,781.875 C 434.80377,781.80776 435.04343,781.73482 435.28125,781.65625 L 436.0625,781.40625 C 482.50708,768.70948 522.31975,744.89239 554.46875,713.34375 C 557.51339,710.3525 559.22581,706.26161 559.21993,701.99343 C 559.21406,697.72525 557.49037,693.6391 554.4375,690.65625 L 491.65625,629.1875 C 485.53219,623.19029 475.75403,623.13497 469.5625,629.0625 C 451.70287,646.21111 429.49569,659.24594 403.875,666.25 C 403.78096,666.28037 403.68721,666.31163 403.59375,666.34375 L 403.0625,666.5 C 330.43484,686.11106 256.49159,650.14618 225.1875,584.75 L 261.09375,575.125 C 266.56713,573.64864 270.83848,569.36661 272.30117,563.88957 C 273.76386,558.41252 272.19607,552.5711 268.1875,548.5625 L 131.96875,412.3125 C 128.94053,409.28098 124.81579,407.60179 120.53125,407.65625 z "
       transform="matrix(1.0706479,0,0,1.0706479,-32.284252,-22.512769)" />
  </g>
  <g
     inkscape:label="Layer 1"
     inkscape:groupmode="layer"
     id="layer1"
     style="display:inline"
     transform="translate(-9.3765326,-189.08319)">
    <path
       style="opacity:1;fill:#3465a4;fill-opacity:1;stroke:none;stroke-width:25;stroke-linecap:round;stroke-linejoin:round;stroke-miterlimit:4;stroke-dasharray:none;stroke-dashoffset:0;stroke-opacity:1"
       d="M 354.88878,259.63641 C 281.93824,260.18235 212.79955,289.93416 162.27254,340.36995 L 229.32186,406.38208 C 273.67442,362.4359 339.54001,342.56202 404.13858,359.94273 C 466.06248,376.60382 511.81974,423.4446 529.87279,480.39062 L 474.93518,495.11203 L 620.77749,640.95434 L 674.17605,441.71346 L 620.81095,456.03338 C 594.28392,367.76084 524.04678,294.82908 428.56274,269.13841 C 403.94624,262.51516 379.20563,259.45443 354.88878,259.63641 z "
       id="path2178" />
    <path
       style="opacity:1;fill:#3465a4;fill-opacity:1;stroke:none;stroke-width:25;stroke-linecap:round;stroke-linejoin:round;stroke-miterlimit:4;stroke-dasharray:none;stroke-dashoffset:0;stroke-opacity:1"
       d="M 96.996479,430.94007 L 43.597916,630.18095 L 94.654437,616.49673 C 139.22246,755.68728 286.01528,836.66321 428.56274,798.17229 L 429.39918,797.90463 C 476.29229,785.08525 517.0321,760.89022 549.44558,729.08205 L 482.22896,663.27066 C 461.12027,683.53898 434.80428,698.94549 404.60699,707.20068 L 404.03821,707.36797 C 311.68914,732.30424 216.64144,681.0923 185.6595,592.13949 L 242.83879,576.81584 L 96.996479,430.94007 z "
       id="path2160" />
  </g>
</svg>
