<?xml version="1.0" encoding="UTF-8" standalone="no"?>
<!-- Created with Inkscape (http://www.inkscape.org/) -->
<svg
   xmlns:dc="http://purl.org/dc/elements/1.1/"
   xmlns:cc="http://web.resource.org/cc/"
   xmlns:rdf="http://www.w3.org/1999/02/22-rdf-syntax-ns#"
   xmlns:svg="http://www.w3.org/2000/svg"
   xmlns="http://www.w3.org/2000/svg"
   xmlns:sodipodi="http://sodipodi.sourceforge.net/DTD/sodipodi-0.dtd"
   xmlns:inkscape="http://www.inkscape.org/namespaces/inkscape"
   width="64"
   height="64"
   id="svg2"
   sodipodi:version="0.32"
   inkscape:version="0.45.1"
   version="1.0"
   sodipodi:docbase="/home/garoth/Coding/versaplex/veranda/ImageSources"
   sodipodi:docname="cycle.svg"
   inkscape:output_extension="org.inkscape.output.svg.inkscape"
   inkscape:export-filename="/home/garoth/Desktop/cycle.png"
   inkscape:export-xdpi="2.0654097"
   inkscape:export-ydpi="2.0654097">
  <defs
     id="defs4" />
  <sodipodi:namedview
     id="base"
     pagecolor="#ffffff"
     bordercolor="#666666"
     borderopacity="1.0"
     gridtolerance="10000"
     guidetolerance="10"
     objecttolerance="10"
     inkscape:pageopacity="0.0"
     inkscape:pageshadow="2"
     inkscape:zoom="11.4375"
     inkscape:cx="32"
     inkscape:cy="32"
     inkscape:document-units="px"
     inkscape:current-layer="layer1"
     showguides="true"
     inkscape:guide-bbox="true"
     inkscape:window-width="1280"
     inkscape:window-height="936"
     inkscape:window-x="0"
     inkscape:window-y="23"
     width="64px"
     height="64px" />
  <metadata
     id="metadata7">
    <rdf:RDF>
      <cc:Work
         rdf:about="">
        <dc:format>image/svg+xml</dc:format>
        <dc:type
           rdf:resource="http://purl.org/dc/dcmitype/StillImage" />
      </cc:Work>
    </rdf:RDF>
  </metadata>
  <g
     inkscape:groupmode="layer"
     id="layer2"
     inkscape:label="border"
     style="display:inline"
     transform="translate(-9.3765326,-189.08319)">
    <path
       sodipodi:type="inkscape:offset"
       inkscape:radius="15.992926"
       inkscape:original="M 361.625 263.53125 C 293.48818 264.04117 228.91168 291.82977 181.71875 338.9375 L 244.34375 400.59375 C 285.76966 359.5474 347.28903 340.98492 407.625 357.21875 C 465.46278 372.78044 508.2007 416.53038 525.0625 469.71875 L 473.75 483.46875 L 609.96875 619.6875 L 659.84375 433.59375 L 610 446.96875 C 585.22339 364.52097 519.62092 296.40169 430.4375 272.40625 C 407.44535 266.22004 384.33727 263.36128 361.625 263.53125 z "
       style="opacity:1;fill:#8ae234;fill-opacity:1;stroke:#4e9a06;stroke-width:10;stroke-linecap:round;stroke-linejoin:round;stroke-miterlimit:4;stroke-dasharray:none;stroke-dashoffset:0;stroke-opacity:1;display:inline"
       id="path5112"
       d="M 361.5,247.53125 C 289.09084,248.07314 220.53627,277.58548 170.40625,327.625 C 167.38863,330.64098 165.70102,334.73755 165.71862,339.00391 C 165.73623,343.27027 167.4576,347.35278 170.5,350.34375 L 233.125,412 C 239.36214,418.13765 249.3737,418.12372 255.59375,411.96875 C 293.10869,374.79754 348.7203,357.92578 403.46875,372.65625 C 450.1347,385.21207 485.77028,417.91654 503.84375,458.875 L 469.625,468.03125 C 464.10638,469.50754 459.79409,473.81509 458.31172,479.33208 C 456.82935,484.84907 458.40198,490.73784 462.4375,494.78125 L 598.65625,631 C 602.69966,635.03552 608.58843,636.60815 614.10542,635.12578 C 619.62241,633.64341 623.92996,629.33112 625.40625,623.8125 L 675.28125,437.71875 C 676.74897,432.20195 675.16508,426.3211 671.1252,422.28766 C 667.08532,418.25423 661.20195,416.67973 655.6875,418.15625 L 620.375,427.625 C 590.95466,346.74248 523.84233,280.98172 434.59375,256.96875 C 410.19914,250.4052 385.63533,247.35063 361.5,247.53125 z "
       transform="matrix(9.8302111e-2,0,0,9.8302111e-2,5.310964,169.85922)" />
    <path
       sodipodi:type="inkscape:offset"
       inkscape:radius="15.879399"
       inkscape:original="M 120.75 423.53125 L 70.875 609.625 L 118.5625 596.84375 C 160.18966 726.84966 297.29619 802.4823 430.4375 766.53125 L 431.21875 766.28125 C 475.01756 754.30777 513.06911 731.70928 543.34375 702 L 480.5625 640.53125 C 460.84669 659.46214 436.26719 673.85204 408.0625 681.5625 L 407.53125 681.71875 C 321.27593 705.00957 232.50006 657.17691 203.5625 574.09375 L 256.96875 559.78125 L 120.75 423.53125 z "
       style="opacity:1;fill:#8ae234;fill-opacity:1;stroke:#4e9a06;stroke-width:10;stroke-linecap:round;stroke-linejoin:round;stroke-miterlimit:4;stroke-dasharray:none;stroke-dashoffset:0;stroke-opacity:1;display:inline"
       id="path5117"
       d="M 120.53125,407.65625 C 113.42932,407.75002 107.25316,412.54803 105.40625,419.40625 L 55.53125,605.5 C 54.051246,610.98704 55.61613,616.8467 59.634716,620.86528 C 63.653302,624.88387 69.512956,626.44875 75,624.96875 L 108.5,616 C 157.88496,745.11302 298.32774,818.66135 434.5625,781.875 C 434.80377,781.80776 435.04343,781.73482 435.28125,781.65625 L 436.0625,781.40625 C 482.50708,768.70948 522.31975,744.89239 554.46875,713.34375 C 557.51339,710.3525 559.22581,706.26161 559.21993,701.99343 C 559.21406,697.72525 557.49037,693.6391 554.4375,690.65625 L 491.65625,629.1875 C 485.53219,623.19029 475.75403,623.13497 469.5625,629.0625 C 451.70287,646.21111 429.49569,659.24594 403.875,666.25 C 403.78096,666.28037 403.68721,666.31163 403.59375,666.34375 L 403.0625,666.5 C 330.43484,686.11106 256.49159,650.14618 225.1875,584.75 L 261.09375,575.125 C 266.56713,573.64864 270.83848,569.36661 272.30117,563.88957 C 273.76386,558.41252 272.19607,552.5711 268.1875,548.5625 L 131.96875,412.3125 C 128.94053,409.28098 124.81579,407.60179 120.53125,407.65625 z "
       transform="matrix(9.8302111e-2,0,0,9.8302111e-2,5.310964,169.85922)" />
  </g>
  <g
     inkscape:label="Layer 1"
     inkscape:groupmode="layer"
     id="layer1"
     style="display:inline"
     transform="translate(-9.3765326,-189.08319)">
    <path
       style="opacity:1;fill:#6eca12;fill-opacity:1;stroke:none;stroke-width:25;stroke-linecap:round;stroke-linejoin:round;stroke-miterlimit:4;stroke-dasharray:none;stroke-dashoffset:0;stroke-opacity:1"
       d="M 40.859468,195.76489 C 34.161475,195.81501 27.813469,198.54669 23.174305,203.17749 L 29.330473,209.23842 C 33.402728,205.20348 39.450212,203.37876 45.381365,204.97457 C 51.066942,206.50432 55.268167,210.80503 56.925718,216.03355 L 51.881593,217.38522 L 65.272182,230.7758 L 70.175,212.48238 L 65.275254,213.79718 C 62.83966,205.6924 56.3908,198.99612 47.623881,196.63732 C 45.363704,196.02922 43.092133,195.74819 40.859468,195.76489 z "
       id="path2178" />
    <path
       style="opacity:1;fill:#6eca12;fill-opacity:1;stroke:none;stroke-width:25;stroke-linecap:round;stroke-linejoin:round;stroke-miterlimit:4;stroke-dasharray:none;stroke-dashoffset:0;stroke-opacity:1"
       d="M 17.180947,211.49324 L 12.278129,229.78665 L 16.965911,228.53023 C 21.057949,241.31007 34.53581,248.74492 47.623881,245.21085 L 47.700679,245.18627 C 52.006195,244.00926 55.746744,241.78778 58.722804,238.8673 L 52.551273,232.82479 C 50.61317,234.68574 48.196951,236.10029 45.424372,236.85825 L 45.372149,236.8736 C 36.893069,239.16314 28.166214,234.46109 25.32159,226.29383 L 30.571538,224.8869 L 17.180947,211.49324 z "
       id="path2160" />
  </g>
</svg>
