<?xml version="1.0" encoding="UTF-8" standalone="no"?>
<!-- Created with Inkscape (http://www.inkscape.org/) -->
<svg
   xmlns:dc="http://purl.org/dc/elements/1.1/"
   xmlns:cc="http://creativecommons.org/ns#"
   xmlns:rdf="http://www.w3.org/1999/02/22-rdf-syntax-ns#"
   xmlns:svg="http://www.w3.org/2000/svg"
   xmlns="http://www.w3.org/2000/svg"
   xmlns:sodipodi="http://sodipodi.sourceforge.net/DTD/sodipodi-0.dtd"
   xmlns:inkscape="http://www.inkscape.org/namespaces/inkscape"
   width="16"
   height="16"
   id="svg2388"
   sodipodi:version="0.32"
   inkscape:version="0.45+0.46pre0"
   sodipodi:docname="previous.svg"
   inkscape:output_extension="org.inkscape.output.svg.inkscape"
   version="1.0">
  <defs
     id="defs2390">
    <inkscape:perspective
       sodipodi:type="inkscape:persp3d"
       inkscape:vp_x="-50 : 600 : 1"
       inkscape:vp_y="0 : 1000 : 0"
       inkscape:vp_z="700 : 600 : 1"
       inkscape:persp3d-origin="300 : 400 : 1"
       id="perspective2396" />
  </defs>
  <sodipodi:namedview
     id="base"
     pagecolor="#ffffff"
     bordercolor="#666666"
     borderopacity="1.0"
     inkscape:pageopacity="0.0"
     inkscape:pageshadow="2"
     inkscape:zoom="46.9375"
     inkscape:cx="8"
     inkscape:cy="8"
     inkscape:current-layer="layer1"
     showgrid="true"
     inkscape:document-units="px"
     inkscape:grid-bbox="true"
     inkscape:window-width="1280"
     inkscape:window-height="936"
     inkscape:window-x="0"
     inkscape:window-y="23" />
  <metadata
     id="metadata2393">
    <rdf:RDF>
      <cc:Work
         rdf:about="">
        <dc:format>image/svg+xml</dc:format>
        <dc:type
           rdf:resource="http://purl.org/dc/dcmitype/StillImage" />
        <dc:title></dc:title>
        <dc:date></dc:date>
        <dc:creator>
          <cc:Agent>
            <dc:title></dc:title>
          </cc:Agent>
        </dc:creator>
        <dc:rights>
          <cc:Agent>
            <dc:title></dc:title>
          </cc:Agent>
        </dc:rights>
        <dc:publisher>
          <cc:Agent>
            <dc:title></dc:title>
          </cc:Agent>
        </dc:publisher>
        <dc:identifier></dc:identifier>
        <dc:source></dc:source>
        <dc:relation></dc:relation>
        <dc:language></dc:language>
        <dc:subject>
          <rdf:Bag />
        </dc:subject>
        <dc:coverage></dc:coverage>
        <dc:description></dc:description>
        <dc:contributor>
          <cc:Agent>
            <dc:title></dc:title>
          </cc:Agent>
        </dc:contributor>
        <cc:license
           rdf:resource="" />
      </cc:Work>
    </rdf:RDF>
  </metadata>
  <g
     id="layer1"
     inkscape:label="Layer 1"
     inkscape:groupmode="layer">
    <g
       id="g3181"
       transform="matrix(0,-0.2015442,0.2015442,0,1.3467398,10.335196)">
      <path
         id="rect2398"
         d="M 11.15625,-5.875 C 9.5112681,-5.8915423 7.8862662,-5.6146595 6.34375,-5 C 6.291684,-4.9792528 6.239336,-4.9589675 6.1875,-4.9375 C 5.9454261,-4.8389927 5.7030871,-4.7059029 5.46875,-4.59375 C 5.3718043,-4.5461147 5.2834351,-4.4877763 5.1875,-4.4375 C 5.1186443,-4.4024858 5.0368709,-4.3799289 4.96875,-4.34375 C 4.6821002,-4.1865389 4.4011957,-4.0249341 4.125,-3.84375 C 3.0018006,-3.1324409 2.0038482,-2.2574265 1.15625,-1.25 L -17.53125,17.4375 C -22.522429,22.428679 -22.467584,30.563666 -17.375,35.65625 C -13.109962,39.921288 -6.7076299,40.644473 -1.8125,37.84375 L -1.8125,59.375 C -1.8125,66.433593 3.9854999,72.124997 11.1875,72.125 C 18.3895,72.125 24.1875,66.433593 24.1875,59.375 L 24.1875,37.84375 C 29.08263,40.644473 35.453712,39.921288 39.71875,35.65625 C 44.811331,30.563667 44.897429,22.428679 39.90625,17.4375 L 21.3125,-1.125 L 21.21875,-1.25 C 20.372308,-2.2560525 19.37134,-3.1329607 18.25,-3.84375 C 17.969665,-4.0214473 17.66977,-4.1871982 17.375,-4.34375 C 17.301286,-4.3839699 17.230593,-4.4301119 17.15625,-4.46875 C 16.969871,-4.5631858 16.785312,-4.6642711 16.59375,-4.75 C 16.45741,-4.8122907 16.325568,-4.8803203 16.1875,-4.9375 C 15.818866,-5.0875084 15.447576,-5.1956044 15.0625,-5.3125 C 13.803746,-5.7004057 12.498998,-5.8881887 11.1875,-5.875 C 11.177244,-5.8751276 11.166505,-5.8748969 11.15625,-5.875 z"
         style="opacity:1;fill:#8f5902;fill-opacity:1;stroke:none;stroke-width:2.30999994;stroke-linecap:round;stroke-linejoin:round;stroke-miterlimit:4;stroke-dasharray:none;stroke-dashoffset:0;stroke-opacity:1" />
      <path
         d="M 11.125,-2.96875 C 9.8258913,-2.9818141 8.5749409,-2.7469482 7.40625,-2.28125 C 7.3370246,-2.2536651 7.3231709,-2.2544193 7.3125,-2.25 C 7.3020834,-2.2499441 7.2916666,-2.2499441 7.28125,-2.25 C 7.2587979,-2.2408636 7.0570613,-2.1306646 6.71875,-1.96875 C 6.8376872,-2.0271911 6.7962466,-1.9826256 6.53125,-1.84375 C 6.5208334,-1.8436941 6.5104166,-1.8436941 6.5,-1.84375 C 6.0513664,-1.6156128 6.0022524,-1.5998812 6.34375,-1.78125 C 6.091529,-1.6429211 5.9018373,-1.5263551 5.71875,-1.40625 C 5.7084125,-1.3957544 5.6979956,-1.3853375 5.6875,-1.375 C 4.8174937,-0.82403512 4.0325223,-0.15650871 3.375,0.625 C 3.3255606,0.68965674 3.2734315,0.7522117 3.21875,0.8125 L -15.46875,19.5 C -19.334104,23.365354 -19.316455,29.589795 -15.3125,33.59375 C -11.961069,36.945181 -7.0080399,37.462643 -3.25,35.3125 C -2.3491708,34.803332 -1.2457706,34.8106 -0.3517266,35.331589 C 0.54231744,35.852579 1.0926241,36.808983 1.09375,37.84375 L 1.09375,59.375 C 1.09375,64.839535 5.5190932,69.218748 11.1875,69.21875 C 16.855905,69.21875 21.28125,64.839535 21.28125,59.375 L 21.28125,37.84375 C 21.282376,36.808983 21.832683,35.852579 22.726727,35.331589 C 23.620771,34.8106 24.724171,34.803332 25.625,35.3125 C 29.387675,37.465295 34.299792,36.950208 37.65625,33.59375 C 41.664413,29.585586 41.704808,23.361058 37.84375,19.5 L 19.25,0.9375 C 19.159597,0.83919115 19.076067,0.73477785 19,0.625 C 18.994936,0.61898076 18.973829,0.63100744 18.96875,0.625 L 18.90625,0.5625 C 18.89224,0.54622209 18.889117,0.51618883 18.875,0.5 C 18.244637,-0.22288728 17.505969,-0.85619273 16.6875,-1.375 C 16.508708,-1.488332 16.265395,-1.6402994 16,-1.78125 C 15.989583,-1.7811941 15.979167,-1.7811941 15.96875,-1.78125 C 15.760217,-1.89503 15.715405,-1.9254632 15.8125,-1.875 C 15.570161,-1.9977898 15.455363,-2.0717705 15.40625,-2.09375 C 15.395833,-2.0936941 15.385417,-2.0936941 15.375,-2.09375 C 15.155181,-2.1941806 15.051717,-2.2544658 15.0625,-2.25 C 14.873723,-2.3268189 14.624202,-2.4081691 14.21875,-2.53125 C 13.248344,-2.8302965 12.233014,-2.9789497 11.21875,-2.96875 C 11.197917,-2.9685264 11.177083,-2.9685264 11.15625,-2.96875 C 11.214912,-2.9680202 11.199334,-2.9680027 11.125,-2.96875 z"
         id="path3177"
         style="opacity:1;fill:#e9b96e;fill-opacity:1;stroke:none;stroke-width:2.30999994;stroke-linecap:round;stroke-linejoin:round;stroke-miterlimit:4;stroke-dasharray:none;stroke-dashoffset:0;stroke-opacity:1"
         inkscape:original="M 11.15625 -5.875 C 9.5112681 -5.8915423 7.8862662 -5.6146595 6.34375 -5 C 6.291684 -4.9792528 6.239336 -4.9589675 6.1875 -4.9375 C 5.9454261 -4.8389927 5.7030871 -4.7059029 5.46875 -4.59375 C 5.3718043 -4.5461147 5.2834351 -4.4877763 5.1875 -4.4375 C 5.1186443 -4.4024858 5.0368709 -4.3799289 4.96875 -4.34375 C 4.6821002 -4.1865389 4.4011957 -4.0249341 4.125 -3.84375 C 3.0018006 -3.1324409 2.0038482 -2.2574265 1.15625 -1.25 L -17.53125 17.4375 C -22.522429 22.428679 -22.467584 30.563666 -17.375 35.65625 C -13.109962 39.921288 -6.7076299 40.644473 -1.8125 37.84375 L -1.8125 59.375 C -1.8125 66.433593 3.9854999 72.124997 11.1875 72.125 C 18.3895 72.125 24.1875 66.433593 24.1875 59.375 L 24.1875 37.84375 C 29.08263 40.644473 35.453712 39.921288 39.71875 35.65625 C 44.811331 30.563667 44.897429 22.428679 39.90625 17.4375 L 21.3125 -1.125 L 21.21875 -1.25 C 20.372308 -2.2560525 19.37134 -3.1329607 18.25 -3.84375 C 17.969665 -4.0214473 17.66977 -4.1871982 17.375 -4.34375 C 17.301286 -4.3839699 17.230593 -4.4301119 17.15625 -4.46875 C 16.969871 -4.5631858 16.785312 -4.6642711 16.59375 -4.75 C 16.45741 -4.8122907 16.325568 -4.8803203 16.1875 -4.9375 C 15.818866 -5.0875084 15.447576 -5.1956044 15.0625 -5.3125 C 13.803746 -5.7004057 12.498998 -5.8881887 11.1875 -5.875 C 11.177244 -5.8751276 11.166505 -5.8748969 11.15625 -5.875 z "
         inkscape:radius="-2.910954"
         sodipodi:type="inkscape:offset" />
      <path
         sodipodi:type="inkscape:offset"
         inkscape:radius="-5.4394894"
         inkscape:original="M 11.15625 -5.875 C 9.5112681 -5.8915423 7.8862662 -5.6146595 6.34375 -5 C 6.291684 -4.9792528 6.239336 -4.9589675 6.1875 -4.9375 C 5.9454261 -4.8389927 5.7030871 -4.7059029 5.46875 -4.59375 C 5.3718043 -4.5461147 5.2834351 -4.4877763 5.1875 -4.4375 C 5.1186443 -4.4024858 5.0368709 -4.3799289 4.96875 -4.34375 C 4.6821002 -4.1865389 4.4011957 -4.0249341 4.125 -3.84375 C 3.0018006 -3.1324409 2.0038482 -2.2574265 1.15625 -1.25 L -17.53125 17.4375 C -22.522429 22.428679 -22.467584 30.563666 -17.375 35.65625 C -13.109962 39.921288 -6.7076299 40.644473 -1.8125 37.84375 L -1.8125 59.375 C -1.8125 66.433593 3.9854999 72.124997 11.1875 72.125 C 18.3895 72.125 24.1875 66.433593 24.1875 59.375 L 24.1875 37.84375 C 29.08263 40.644473 35.453712 39.921288 39.71875 35.65625 C 44.811331 30.563667 44.897429 22.428679 39.90625 17.4375 L 21.3125 -1.125 L 21.21875 -1.25 C 20.372308 -2.2560525 19.37134 -3.1329607 18.25 -3.84375 C 17.969665 -4.0214473 17.66977 -4.1871982 17.375 -4.34375 C 17.301286 -4.3839699 17.230593 -4.4301119 17.15625 -4.46875 C 16.969871 -4.5631858 16.785312 -4.6642711 16.59375 -4.75 C 16.45741 -4.8122907 16.325568 -4.8803203 16.1875 -4.9375 C 15.818866 -5.0875084 15.447576 -5.1956044 15.0625 -5.3125 C 13.803746 -5.7004057 12.498998 -5.8881887 11.1875 -5.875 C 11.177244 -5.8751276 11.166505 -5.8748969 11.15625 -5.875 z "
         style="opacity:1;fill:#c17d11;fill-opacity:1;stroke:none;stroke-width:2.30999994;stroke-linecap:round;stroke-linejoin:round;stroke-miterlimit:4;stroke-dasharray:none;stroke-dashoffset:0;stroke-opacity:1"
         id="path3179"
         d="M 11.09375,-0.4375 C 10.095076,-0.44754288 9.1877259,-0.27380621 8.34375,0.0625 C 8.2596195,0.096024242 8.2561638,0.10413928 8.28125,0.09375 C 8.2708334,0.093779919 8.2604166,0.093779919 8.25,0.09375 C 8.4183175,0.025256439 8.2411262,0.10736101 7.8125,0.3125 C 8.1189591,0.16191805 8.1305981,0.15916452 7.71875,0.375 C 7.6979838,0.38555036 7.67715,0.39596724 7.65625,0.40625 C 6.8777308,0.8021392 6.8339465,0.83908678 7.53125,0.46875 C 7.3089348,0.59067722 7.1959607,0.65169988 7.09375,0.71875 C 7.0729838,0.72930036 7.05215,0.73971724 7.03125,0.75 C 6.3811742,1.1616854 5.8049171,1.6647297 5.3125,2.25 C 5.2132756,2.3689809 5.1090139,2.4836688 5,2.59375 L -13.6875,21.28125 C -16.574931,24.168681 -16.589592,28.754158 -13.53125,31.8125 C -10.973403,34.370347 -7.2703321,34.710031 -4.5,33.125 C -2.8178959,32.170409 -0.75544101,32.180702 0.9170515,33.152035 C 2.589544,34.123367 3.6205517,35.909662 3.625,37.84375 L 3.625,59.375 C 3.625,63.454892 6.8512148,66.687498 11.1875,66.6875 C 15.523782,66.6875 18.75,63.454892 18.75,59.375 L 18.75,37.84375 C 18.754448,35.909662 19.785456,34.123367 21.457948,33.152035 C 23.130441,32.180702 25.192896,32.170409 26.875,33.125 C 29.653993,34.714987 33.307759,34.379741 35.875,31.8125 C 38.941207,28.746292 38.941903,24.160653 36.0625,21.28125 L 17.46875,2.71875 C 17.324528,2.5703538 17.188891,2.4138495 17.0625,2.25 C 17.052041,2.2396257 17.041624,2.2292089 17.03125,2.21875 C 16.548377,1.6516965 15.98019,1.1534235 15.34375,0.75 C 15.25316,0.69257756 15.052378,0.59614889 14.8125,0.46875 C 14.802041,0.45837569 14.791624,0.44795894 14.78125,0.4375 C 14.455609,0.25982357 14.410238,0.21589098 14.65625,0.34375 C 14.365303,0.19633109 14.300379,0.18535502 14.375,0.21875 C 14.364541,0.20837569 14.354124,0.19795894 14.34375,0.1875 C 14.051418,0.05394 13.95367,0.035737154 14.09375,0.09375 C 14.061203,0.080505496 13.891901,0.034703707 13.46875,-0.09375 C 13.46872,-0.10416665 13.46872,-0.11458335 13.46875,-0.125 C 12.748811,-0.34686096 12.006078,-0.44510328 11.25,-0.4375 C 11.208335,-0.43702128 11.166665,-0.43702128 11.125,-0.4375 C 11.243527,-0.43602535 11.223744,-0.43619308 11.09375,-0.4375 z" />
    </g>
  </g>
</svg>
