<?xml version="1.0" encoding="UTF-8" standalone="no"?>
<!-- Created with Inkscape (http://www.inkscape.org/) -->
<svg
   xmlns:dc="http://purl.org/dc/elements/1.1/"
   xmlns:cc="http://web.resource.org/cc/"
   xmlns:rdf="http://www.w3.org/1999/02/22-rdf-syntax-ns#"
   xmlns:svg="http://www.w3.org/2000/svg"
   xmlns="http://www.w3.org/2000/svg"
   xmlns:sodipodi="http://sodipodi.sourceforge.net/DTD/sodipodi-0.dtd"
   xmlns:inkscape="http://www.inkscape.org/namespaces/inkscape"
   width="128"
   height="128"
   id="svg2"
   sodipodi:version="0.32"
   inkscape:version="0.45.1"
   version="1.0"
   sodipodi:docbase="/home/garoth/Coding/versaplex/veranda"
   sodipodi:docname="run-big.svg"
   inkscape:output_extension="org.inkscape.output.svg.inkscape"
   inkscape:export-filename="/home/garoth/Desktop/run.png"
   inkscape:export-xdpi="3.2135043"
   inkscape:export-ydpi="3.2135043">
  <defs
     id="defs4" />
  <sodipodi:namedview
     id="base"
     pagecolor="#ffffff"
     bordercolor="#666666"
     borderopacity="1.0"
     gridtolerance="10000"
     guidetolerance="10"
     objecttolerance="10"
     inkscape:pageopacity="0.0"
     inkscape:pageshadow="2"
     inkscape:zoom="5.84375"
     inkscape:cx="64"
     inkscape:cy="64"
     inkscape:document-units="px"
     inkscape:current-layer="layer1"
     showguides="true"
     inkscape:guide-bbox="true"
     inkscape:window-width="1280"
     inkscape:window-height="936"
     inkscape:window-x="0"
     inkscape:window-y="23"
     width="128px"
     height="128px" />
  <metadata
     id="metadata7">
    <rdf:RDF>
      <cc:Work
         rdf:about="">
        <dc:format>image/svg+xml</dc:format>
        <dc:type
           rdf:resource="http://purl.org/dc/dcmitype/StillImage" />
      </cc:Work>
    </rdf:RDF>
  </metadata>
  <g
     inkscape:label="Layer 1"
     inkscape:groupmode="layer"
     id="layer1"
     transform="translate(131.82522,-68.008583)">
    <path
       style="fill:#babdb6;fill-opacity:1;stroke:#2e3436;stroke-width:3.75365829;stroke-linecap:round;stroke-linejoin:round;stroke-miterlimit:4;stroke-dashoffset:0;stroke-opacity:1"
       d="M -82.701435,71.607965 C -92.387645,71.607965 -100.0903,79.867034 -100.0903,89.597384 C -100.0903,95.210979 -97.575605,100.31051 -93.55416,103.64077 L -112.95132,118.10641 C -115.0257,119.6535 -116.56732,121.67255 -117.3431,124.10289 C -118.11887,126.53322 -118.0237,129.71733 -116.14662,132.23427 L -114.23217,134.79607 C -112.35424,137.31428 -109.33154,138.31115 -106.7812,138.25884 C -104.2309,138.2065 -101.85839,137.304 -99.785354,135.75796 L -90.330737,128.71051 L -87.032136,144.34914 L -100.9583,151.82362 C -104.30093,153.61707 -106.86876,156.30239 -108.28742,159.54677 C -109.33435,161.83373 -109.84997,164.32053 -109.86861,167.05879 L -109.97183,179.1784 C -109.97183,179.18153 -109.97183,179.18466 -109.97183,179.1878 C -109.9958,182.72643 -109.0335,186.09617 -106.76708,188.49684 C -104.50068,190.89756 -101.33872,191.83357 -98.621673,191.86575 C -95.903031,191.89802 -92.71654,191.03846 -90.391752,188.67985 C -88.066964,186.32124 -87.03751,182.95259 -87.013367,179.40363 L -86.961828,172.92383 L -69.056834,163.31918 L -53.04752,172.06991 C -49.453302,174.03364 -45.627209,174.88877 -41.861612,174.23761 C -41.847431,174.23547 -41.864103,174.23868 -41.720888,174.21415 C -41.681734,174.20838 -41.642577,174.20209 -41.603548,174.19541 C -40.639137,174.00836 -40.619398,173.99753 -41.547273,174.18134 C -38.62938,173.6729 -35.965336,172.36494 -33.462771,170.32914 C -33.453447,170.32137 -33.443994,170.31355 -33.434666,170.30567 L -22.816495,161.55496 C -20.176338,159.40728 -18.169715,156.81156 -17.645797,153.55499 C -17.121879,150.29841 -18.45422,147.19641 -20.123257,145.12332 C -21.791975,143.05061 -24.309038,141.12539 -27.602396,140.6518 C -30.895756,140.17816 -34.420413,141.40557 -37.27743,143.7298 C -37.286884,143.73757 -37.296272,143.74539 -37.3056,143.75327 L -45.366593,150.38783 L -55.703198,144.74331 C -55.91878,143.92147 -56.199647,143.11221 -56.613443,142.34094 C -57.158503,141.32516 -57.8683,140.43146 -58.66395,139.65705 L -61.549509,126.02192 L -54.408222,128.54629 C -51.969664,129.40821 -49.436438,129.56739 -46.985295,128.86065 C -44.53428,128.15397 -41.941649,126.29913 -40.89509,123.33808 L -39.829945,120.33514 C -38.78256,117.37195 -39.638188,114.29767 -41.101412,112.20847 C -42.564766,110.11928 -44.636481,108.65031 -47.07453,107.78855 L -68.639266,100.16866 C -66.535878,97.177272 -65.31257,93.514425 -65.31257,89.597384 L -65.31257,89.559837 C -65.31257,89.555168 -65.31257,89.550449 -65.31257,89.545774 C -65.341441,79.836325 -73.035165,71.607965 -82.701435,71.607965 z "
       id="path5186" />
    <path
       style="fill:#888a85;fill-opacity:1;stroke:none;stroke-width:0.76223099;stroke-linecap:round;stroke-linejoin:round;stroke-miterlimit:4;stroke-dashoffset:0;stroke-opacity:1"
       d="M -82.699636,77.031833 C -89.304495,77.031833 -94.664391,82.660444 -94.664391,89.596963 C -94.664391,95.255494 -91.096959,100.04508 -86.196899,101.61757 C -87.221747,103.14964 -87.948511,104.95692 -88.392343,106.69594 C -88.768494,106.88862 -89.139877,107.11934 -89.498753,107.38703 L -109.70771,122.45815 C -112.18778,124.30773 -113.11949,127.22052 -111.79846,128.99199 L -109.88912,131.55038 C -108.56801,133.32181 -105.5073,133.26033 -103.02727,131.41078 L -86.772884,119.28895 L -80.883879,147.21116 L -98.39132,156.60702 C -100.73424,157.86411 -102.44894,159.72904 -103.31964,161.72033 C -104.0142,163.23738 -104.42995,165.08688 -104.44356,167.09542 L -104.54824,179.22424 C -104.58364,184.4393 -101.90965,186.4024 -98.555423,186.44214 C -95.201101,186.48194 -92.472278,184.58242 -92.436881,179.36732 L -92.356532,169.63285 C -92.103381,169.51813 -91.852816,169.39362 -91.602675,169.25942 L -69.037863,157.15502 L -50.448501,167.31182 C -47.791035,168.76369 -44.989081,169.27423 -42.783735,168.89293 C -42.734105,168.88525 -42.683642,168.87701 -42.633624,168.86846 C -42.623021,168.8664 -42.612865,168.86364 -42.602262,168.86147 C -40.743703,168.53767 -38.721747,167.61222 -36.885161,166.11811 L -26.264114,157.36795 C -22.218479,154.0768 -22.240836,151.13991 -24.344491,148.52698 C -26.44808,145.91409 -29.813365,144.64601 -33.859,147.93711 L -44.479982,156.68384 C -44.569923,156.75693 -44.658006,156.83274 -44.745264,156.90723 L -60.741405,148.16747 C -60.648166,147.02924 -60.852505,145.91338 -61.394042,144.90405 C -61.902385,143.9566 -62.654605,143.20476 -63.57197,142.65977 L -68.857162,117.68689 L -52.602746,123.43195 C -49.685813,124.46304 -46.746012,123.61674 -46.009512,121.53323 L -44.945007,118.52456 C -44.208507,116.44104 -45.965119,113.93274 -48.882053,112.90167 L -72.04729,104.71342 C -73.303186,103.22965 -74.673798,101.49582 -76.228606,100.16557 C -72.924833,97.928317 -70.734884,94.029493 -70.734884,89.596963 L -70.734884,89.558534 C -70.755452,82.635877 -76.10789,77.031833 -82.699636,77.031833 z "
       id="path2179" />
  </g>
</svg>
