<?xml version="1.0" encoding="UTF-8" standalone="no"?>
<!-- Created with Inkscape (http://www.inkscape.org/) -->
<svg
   xmlns:dc="http://purl.org/dc/elements/1.1/"
   xmlns:cc="http://web.resource.org/cc/"
   xmlns:rdf="http://www.w3.org/1999/02/22-rdf-syntax-ns#"
   xmlns:svg="http://www.w3.org/2000/svg"
   xmlns="http://www.w3.org/2000/svg"
   xmlns:sodipodi="http://sodipodi.sourceforge.net/DTD/sodipodi-0.dtd"
   xmlns:inkscape="http://www.inkscape.org/namespaces/inkscape"
   width="20"
   height="20"
   id="svg2"
   sodipodi:version="0.32"
   inkscape:version="0.45.1"
   version="1.0"
   sodipodi:docbase="/home/garoth/Coding/versaplex/veranda"
   sodipodi:docname="run.svg"
   inkscape:output_extension="org.inkscape.output.svg.inkscape"
   inkscape:export-filename="/home/garoth/Desktop/run.png"
   inkscape:export-xdpi="3.2135043"
   inkscape:export-ydpi="3.2135043">
  <defs
     id="defs4" />
  <sodipodi:namedview
     id="base"
     pagecolor="#ffffff"
     bordercolor="#666666"
     borderopacity="1.0"
     gridtolerance="10000"
     guidetolerance="10"
     objecttolerance="10"
     inkscape:pageopacity="0.0"
     inkscape:pageshadow="2"
     inkscape:zoom="18.7"
     inkscape:cx="11.65176"
     inkscape:cy="8.8481299"
     inkscape:document-units="px"
     inkscape:current-layer="layer1"
     showguides="true"
     inkscape:guide-bbox="true"
     inkscape:window-width="1280"
     inkscape:window-height="936"
     inkscape:window-x="0"
     inkscape:window-y="23"
     width="20px"
     height="20px" />
  <metadata
     id="metadata7">
    <rdf:RDF>
      <cc:Work
         rdf:about="">
        <dc:format>image/svg+xml</dc:format>
        <dc:type
           rdf:resource="http://purl.org/dc/dcmitype/StillImage" />
      </cc:Work>
    </rdf:RDF>
  </metadata>
  <g
     inkscape:label="Layer 1"
     inkscape:groupmode="layer"
     id="layer1"
     transform="translate(131.82522,-68.008583)">
    <path
       style="fill:#babdb6;fill-opacity:1;stroke:#2e3436;stroke-width:0.58764052;stroke-linecap:round;stroke-linejoin:round;stroke-miterlimit:4;stroke-dashoffset:0;stroke-opacity:1"
       d="M -124.12688,68.62394 C -125.64327,68.62394 -126.84912,69.916909 -126.84912,71.440209 C -126.84912,72.319025 -126.45545,73.117364 -125.82589,73.638722 L -128.86253,75.903338 C -129.18728,76.145537 -129.42862,76.461623 -129.55007,76.842095 C -129.67152,77.222566 -129.65662,77.721043 -129.36276,78.115076 L -129.06305,78.516135 C -128.76906,78.910365 -128.29585,79.066423 -127.89659,79.058237 C -127.49734,79.050043 -127.12592,78.908754 -126.80138,78.66672 L -125.32126,77.563423 L -124.80486,80.011681 L -126.98501,81.181819 C -127.5083,81.462589 -127.9103,81.88298 -128.13239,82.39089 C -128.29629,82.748918 -128.37701,83.138232 -128.37993,83.566907 L -128.39609,85.464252 C -128.39609,85.464744 -128.39609,85.46523 -128.39609,85.465722 C -128.39984,86.0197 -128.24919,86.547239 -127.89438,86.923066 C -127.53957,87.298903 -127.04456,87.445436 -126.61921,87.450474 C -126.19361,87.455528 -125.69476,87.320962 -125.33081,86.951717 C -124.96686,86.582473 -124.8057,86.055107 -124.80192,85.49951 L -124.79385,84.485092 L -121.9908,82.981468 L -119.48452,84.351405 C -118.92184,84.658829 -118.32286,84.792703 -117.73335,84.690766 C -117.73113,84.690429 -117.73374,84.690931 -117.71132,84.687093 C -117.70519,84.686189 -117.69906,84.685202 -117.69295,84.684158 C -117.54197,84.654875 -117.53888,84.653182 -117.68414,84.681955 C -117.22734,84.602357 -116.81028,84.397594 -116.4185,84.078887 C -116.41704,84.07767 -116.41556,84.076446 -116.4141,84.075213 L -114.75181,82.705276 C -114.33849,82.369054 -114.02435,81.962693 -113.94233,81.452867 C -113.86031,80.943048 -114.06889,80.457424 -114.33018,80.132883 C -114.59142,79.808397 -114.98547,79.506998 -115.50105,79.432857 C -116.01663,79.358707 -116.56842,79.550862 -117.01569,79.914723 C -117.01717,79.91594 -117.01864,79.917164 -117.0201,79.918397 L -118.28206,80.957045 L -119.90027,80.073386 C -119.93402,79.94473 -119.97799,79.818037 -120.04277,79.697295 C -120.1281,79.538271 -120.23922,79.398363 -120.36378,79.277127 L -120.81552,77.142523 L -119.69754,77.537715 C -119.31578,77.672651 -118.9192,77.69757 -118.53547,77.586929 C -118.15176,77.476296 -117.74588,77.185919 -117.58204,76.722364 L -117.41529,76.25225 C -117.25132,75.788357 -117.38527,75.307074 -117.61434,74.980008 C -117.84343,74.652942 -118.16776,74.422973 -118.54944,74.288062 L -121.92543,73.095157 C -121.59614,72.626851 -121.40463,72.053427 -121.40463,71.440209 L -121.40463,71.434331 C -121.40463,71.4336 -121.40463,71.432861 -121.40463,71.432129 C -121.40915,69.912101 -122.61361,68.62394 -124.12688,68.62394 z "
       id="path5186" />
    <path
       style="fill:#888a85;fill-opacity:1;stroke:none;stroke-width:0.76223099;stroke-linecap:round;stroke-linejoin:round;stroke-miterlimit:4;stroke-dashoffset:0;stroke-opacity:1"
       d="M -124.1266,69.473054 C -125.1606,69.473054 -125.9997,70.354221 -125.9997,71.440143 C -125.9997,72.325994 -125.44121,73.07581 -124.6741,73.321987 C -124.83454,73.561835 -124.94832,73.844766 -125.0178,74.117013 C -125.07669,74.147177 -125.13483,74.183297 -125.19101,74.225204 L -128.35474,76.584609 C -128.743,76.874164 -128.88886,77.330166 -128.68205,77.607492 L -128.38314,78.008009 C -128.17632,78.285335 -127.69716,78.275712 -127.30891,77.986155 L -124.76427,76.088466 L -123.84234,80.459734 L -126.58315,81.930673 C -126.94993,82.127471 -127.21837,82.419427 -127.35468,82.731165 C -127.46341,82.968662 -127.5285,83.258202 -127.53063,83.572643 L -127.54702,85.471426 C -127.55256,86.287855 -127.13394,86.595179 -126.60884,86.6014 C -126.08372,86.607631 -125.65652,86.310259 -125.65098,85.49383 L -125.6384,83.969881 C -125.59877,83.951924 -125.55954,83.932428 -125.52038,83.911421 L -121.98783,82.01646 L -119.07764,83.606522 C -118.66161,83.833812 -118.22296,83.913739 -117.87771,83.854047 C -117.86994,83.852846 -117.86204,83.851555 -117.85421,83.850216 C -117.85255,83.849895 -117.85096,83.84946 -117.8493,83.849123 C -117.55834,83.798429 -117.2418,83.653549 -116.95428,83.419643 L -115.29154,82.049795 C -114.65819,81.534561 -114.66169,81.074786 -114.99102,80.66573 C -115.32034,80.256674 -115.84718,80.058157 -116.48053,80.573384 L -118.14326,81.942697 C -118.15734,81.954138 -118.17113,81.966006 -118.18479,81.977668 L -120.68901,80.609448 C -120.67441,80.431256 -120.7064,80.256566 -120.79118,80.098553 C -120.87076,79.950228 -120.98852,79.832527 -121.13214,79.747209 L -121.95954,75.837662 L -119.41489,76.737059 C -118.95824,76.898476 -118.49801,76.765989 -118.38271,76.439811 L -118.21606,75.9688 C -118.10076,75.642622 -118.37576,75.249945 -118.83241,75.088529 L -122.45896,73.806647 C -122.65557,73.574361 -122.87014,73.302927 -123.11355,73.094672 C -122.59634,72.744428 -122.2535,72.134062 -122.2535,71.440143 L -122.2535,71.434127 C -122.25672,70.350375 -123.09465,69.473054 -124.1266,69.473054 z "
       id="path2179" />
  </g>
</svg>
