<?xml version="1.0" encoding="UTF-8" standalone="no"?>
<!-- Created with Inkscape (http://www.inkscape.org/) -->
<svg
   xmlns:dc="http://purl.org/dc/elements/1.1/"
   xmlns:cc="http://creativecommons.org/ns#"
   xmlns:rdf="http://www.w3.org/1999/02/22-rdf-syntax-ns#"
   xmlns:svg="http://www.w3.org/2000/svg"
   xmlns="http://www.w3.org/2000/svg"
   xmlns:xlink="http://www.w3.org/1999/xlink"
   xmlns:sodipodi="http://sodipodi.sourceforge.net/DTD/sodipodi-0.dtd"
   xmlns:inkscape="http://www.inkscape.org/namespaces/inkscape"
   width="20"
   height="20"
   id="svg2"
   sodipodi:version="0.32"
   inkscape:version="0.45+0.46pre0"
   version="1.0"
   sodipodi:docname="search.svg"
   inkscape:output_extension="org.inkscape.output.svg.inkscape">
  <defs
     id="defs4">
    <linearGradient
       inkscape:collect="always"
       id="linearGradient3200">
      <stop
         style="stop-color:#eeeeec;stop-opacity:1;"
         offset="0"
         id="stop3202" />
      <stop
         style="stop-color:#eeeeec;stop-opacity:0"
         offset="1"
         id="stop3204" />
    </linearGradient>
    <inkscape:perspective
       sodipodi:type="inkscape:persp3d"
       inkscape:vp_x="-50 : 600 : 1"
       inkscape:vp_y="0 : 1000 : 0"
       inkscape:vp_z="700 : 600 : 1"
       inkscape:persp3d-origin="300 : 400 : 1"
       id="perspective10" />
    <linearGradient
       inkscape:collect="always"
       xlink:href="#linearGradient3200"
       id="linearGradient3206"
       x1="-26.990946"
       y1="208.4106"
       x2="104.76716"
       y2="406.22083"
       gradientUnits="userSpaceOnUse" />
  </defs>
  <sodipodi:namedview
     id="base"
     pagecolor="#ffffff"
     bordercolor="#666666"
     borderopacity="1.0"
     gridtolerance="10000"
     guidetolerance="10"
     objecttolerance="10"
     inkscape:pageopacity="0.0"
     inkscape:pageshadow="2"
     inkscape:zoom="27.288905"
     inkscape:cx="10.228738"
     inkscape:cy="9.5712656"
     inkscape:document-units="px"
     inkscape:current-layer="layer1"
     showgrid="false"
     inkscape:window-width="1280"
     inkscape:window-height="936"
     inkscape:window-x="0"
     inkscape:window-y="23" />
  <metadata
     id="metadata7">
    <rdf:RDF>
      <cc:Work
         rdf:about="">
        <dc:format>image/svg+xml</dc:format>
        <dc:type
           rdf:resource="http://purl.org/dc/dcmitype/StillImage" />
        <dc:title></dc:title>
        <dc:date></dc:date>
        <dc:creator>
          <cc:Agent>
            <dc:title></dc:title>
          </cc:Agent>
        </dc:creator>
        <dc:rights>
          <cc:Agent>
            <dc:title></dc:title>
          </cc:Agent>
        </dc:rights>
        <dc:publisher>
          <cc:Agent>
            <dc:title></dc:title>
          </cc:Agent>
        </dc:publisher>
        <dc:identifier></dc:identifier>
        <dc:source></dc:source>
        <dc:relation></dc:relation>
        <dc:language></dc:language>
        <dc:subject>
          <rdf:Bag />
        </dc:subject>
        <dc:coverage></dc:coverage>
        <dc:description></dc:description>
        <dc:contributor>
          <cc:Agent>
            <dc:title></dc:title>
          </cc:Agent>
        </dc:contributor>
        <cc:license
           rdf:resource="" />
      </cc:Work>
    </rdf:RDF>
  </metadata>
  <g
     inkscape:label="Layer 1"
     inkscape:groupmode="layer"
     id="layer1"
     transform="translate(458.4534,1146.975)">
    <path
       d="M -318.6875,522.375 C -337.58497,522.72179 -353.7004,536.15998 -357.4375,554.6875 C -359.77282,566.26867 -358.48247,564.21431 -358.625,568.59375 C -358.76753,572.97319 -358.90654,578.50751 -359,585.25 C -359.18692,598.73499 -359.28193,616.9706 -359.34375,638.4375 C -359.46738,681.3713 -359.39093,737.18309 -359.21875,792.59375 C -358.87439,903.41508 -358.1875,1012.5312 -358.1875,1012.5312 C -358.1875,1047.246 -330.07545,1078.625 -293.46875,1078.625 L -178.90625,1078.625 C -142.29944,1078.6251 -114.18752,1046.996 -114.1875,1012.2812 C -114.1875,1012.2812 -113.72722,904.03413 -113.5,793.96875 C -113.38639,738.93606 -113.35212,683.4719 -113.4375,640.90625 C -113.48019,619.62342 -113.53025,601.59017 -113.65625,588.3125 C -113.71925,581.67366 -113.81285,576.25483 -113.90625,572.0625 C -113.99965,567.87017 -113.35225,568.978 -114.59375,560.1875 C -115.24908,555.54729 -116.11691,552.87836 -116.84375,550.59375 C -120.27728,539.81607 -128.08381,530.97847 -138.35531,526.24098 C -148.62681,521.50348 -160.41684,521.30263 -170.84375,525.6875 C -218.78236,545.84674 -257.41154,548.84763 -299.28125,526.96875 C -305.26276,523.83524 -311.93598,522.25559 -318.6875,522.375 z"
       id="path3210"
       style="fill:#204a87;fill-opacity:1;stroke:none;stroke-width:2.30999994;stroke-linecap:round;stroke-linejoin:round;stroke-miterlimit:4;stroke-dasharray:none;stroke-dashoffset:0;stroke-opacity:1"
       inkscape:original="M -317.9375 562.65625 C -320.62784 575.998 -317.90627 1012.2812 -317.90625 1012.2812 C -317.90625 1026.7144 -307.00539 1038.3438 -293.46875 1038.3438 L -178.90625 1038.3438 C -165.36962 1038.3438 -154.46876 1026.7144 -154.46875 1012.2812 C -154.46875 1012.2812 -152.65189 578.67682 -154.46875 565.8125 C -154.58713 564.97429 -154.85178 563.96596 -155.21875 562.8125 C -210.1223 585.90065 -264.49155 590.58426 -317.9375 562.65625 z "
       inkscape:radius="40.280422"
       sodipodi:type="inkscape:offset"
       transform="matrix(1.7259566e-2,-9.9648141e-3,9.9648141e-3,1.7259566e-2,-449.55912,-1148.7013)" />
    <path
       d="M -236.40625,414.90625 C -253.31008,414.90625 -269.0951,418.41155 -283.71875,426.9375 C -298.3424,435.46345 -314.96877,452.66404 -314.96875,477.5625 C -314.96875,477.9671 -314.88454,478.34837 -314.875,478.75 C -316.04304,480.54612 -317.12869,482.25132 -317.96875,483.53125 C -317.96875,483.53125 -325.5748,494.60782 -334.125,508.09375 C -338.4001,514.83672 -342.82219,522.04686 -346.71875,529 C -350.61531,535.95314 -353.96574,539.61287 -357.21875,553.125 C -356.95295,552.02065 -356.48307,550.98468 -356.09375,549.90625 C -356.69821,551.5046 -357.25436,553.12922 -357.5625,554.65625 C -361.15334,572.47888 -352.40793,590.50669 -336.1875,598.71875 C -281.28625,626.50273 -211.95786,631.77983 -139.59375,600.53125 C -132.57954,597.50472 -126.56615,592.55316 -122.25,586.25 L -121.84375,585.65625 C -114.81222,575.37663 -112.91004,562.43026 -116.6875,550.5625 C -122.28961,532.95376 -130.3109,520.55005 -138.09375,507 C -145.8766,493.44995 -152.9375,482.09375 -152.9375,482.09375 C -152.97894,482.0207 -153.02061,481.94779 -153.0625,481.875 C -154.26821,479.9615 -155.86155,477.3514 -158.09375,474.28125 C -159.50478,451.16005 -175.13539,435.03512 -189.09375,426.90625 C -203.71874,418.38916 -219.5024,414.90625 -236.40625,414.90625 z M -350.15625,538.21875 C -350.60944,538.81768 -353.67954,543.74574 -355.8125,549.0625 C -353.38784,542.80548 -349.65156,537.55176 -350.15625,538.21875 z"
       id="path3208"
       style="opacity:1;fill:#555753;fill-opacity:1;stroke:none;stroke-width:2.30999994;stroke-linecap:round;stroke-linejoin:round;stroke-miterlimit:4;stroke-dasharray:none;stroke-dashoffset:0;stroke-opacity:1"
       inkscape:original="M -236.40625 455.34375 C -257.46074 455.34375 -274.53126 465.30534 -274.53125 477.5625 C -274.53125 481.92277 -272.35911 485.97431 -268.625 489.40625 C -274.921 490.70823 -279.16925 498.12053 -284.15625 505.71875 C -284.15625 505.71875 -315.07887 550.84959 -317.90625 562.59375 C -317.91284 562.62113 -317.93097 562.62389 -317.9375 562.65625 C -272.38573 585.70872 -218.69007 590.63928 -155.625 563.40625 L -155.21875 562.8125 C -160.28746 546.88036 -187.28125 503.4375 -187.28125 503.4375 C -191.3984 496.90343 -196.49092 489.1875 -203.90625 489.1875 C -200.32351 485.80428 -198.25 481.826 -198.25 477.5625 C -198.25 465.30536 -215.35175 455.34375 -236.40625 455.34375 z "
       inkscape:radius="40.432034"
       sodipodi:type="inkscape:offset"
       transform="matrix(1.7259566e-2,-9.9648141e-3,9.9648141e-3,1.7259566e-2,-449.55912,-1148.7013)" />
    <path
       sodipodi:type="inkscape:offset"
       inkscape:radius="18.062296"
       inkscape:original="M -317.9375 562.65625 C -320.62784 575.998 -317.90627 1012.2812 -317.90625 1012.2812 C -317.90625 1026.7144 -307.00539 1038.3438 -293.46875 1038.3438 L -178.90625 1038.3438 C -165.36962 1038.3438 -154.46876 1026.7144 -154.46875 1012.2812 C -154.46875 1012.2812 -152.65189 578.67682 -154.46875 565.8125 C -154.58713 564.97429 -154.85178 563.96596 -155.21875 562.8125 C -210.1223 585.90065 -264.49155 590.58426 -317.9375 562.65625 z "
       style="fill:#729fcf;fill-opacity:1;stroke:none;stroke-width:2.30999994;stroke-linecap:round;stroke-linejoin:round;stroke-miterlimit:4;stroke-dasharray:none;stroke-dashoffset:0;stroke-opacity:1"
       id="path3194"
       d="M -318.28125,544.59375 C -326.758,544.75081 -333.98493,550.78191 -335.65625,559.09375 C -336.79619,564.74685 -336.30306,565.18189 -336.4375,569.3125 C -336.57194,573.44311 -336.68886,578.89682 -336.78125,585.5625 C -336.96604,598.89386 -337.06331,617.07614 -337.125,638.5 C -337.24838,681.34772 -337.17211,737.14343 -337,792.53125 C -336.65578,903.3069 -335.96875,1012.4062 -335.96875,1012.4062 C -335.96875,1035.934 -317.35032,1056.4062 -293.46875,1056.4062 L -178.90625,1056.4062 C -155.02463,1056.4063 -136.40627,1035.809 -136.40625,1012.2812 C -136.40625,1012.2812 -135.94591,903.94061 -135.71875,793.90625 C -135.60517,738.88907 -135.53974,683.47583 -135.625,640.96875 C -135.66763,619.71521 -135.74999,601.70404 -135.875,588.53125 C -135.9375,581.94486 -136.03541,576.55266 -136.125,572.53125 C -136.21459,568.50984 -135.97441,567.66652 -136.59375,563.28125 C -136.95291,560.73817 -137.47166,559.00443 -138,557.34375 C -139.53537,552.50627 -143.03494,548.53784 -147.6424,546.40949 C -152.24987,544.28114 -157.54014,544.18923 -162.21875,546.15625 C -213.99913,567.93104 -261.3075,571.87175 -309.5625,546.65625 C -312.24944,545.24751 -315.24791,544.53819 -318.28125,544.59375 z"
       transform="matrix(1.7259566e-2,-9.9648141e-3,8.7586133e-3,1.5170366e-2,-448.28489,-1146.4943)" />
    <path
       sodipodi:type="inkscape:offset"
       inkscape:radius="18.731928"
       inkscape:original="M -236.40625 455.34375 C -257.46074 455.34375 -274.53126 465.30534 -274.53125 477.5625 C -274.53125 481.92277 -272.35911 485.97431 -268.625 489.40625 C -274.921 490.70823 -279.16925 498.12053 -284.15625 505.71875 C -284.15625 505.71875 -315.07887 550.84959 -317.90625 562.59375 C -317.91284 562.62113 -317.93097 562.62389 -317.9375 562.65625 C -272.38573 585.70872 -218.69007 590.63928 -155.625 563.40625 L -155.21875 562.8125 C -160.28746 546.88036 -187.28125 503.4375 -187.28125 503.4375 C -191.3984 496.90343 -196.49092 489.1875 -203.90625 489.1875 C -200.32351 485.80428 -198.25 481.826 -198.25 477.5625 C -198.25 465.30536 -215.35175 455.34375 -236.40625 455.34375 z "
       style="opacity:1;fill:#babdb6;fill-opacity:1;stroke:none;stroke-width:2.30999994;stroke-linecap:round;stroke-linejoin:round;stroke-miterlimit:4;stroke-dasharray:none;stroke-dashoffset:0;stroke-opacity:1"
       id="path3190"
       d="M -236.40625,436.625 C -249.88773,436.625 -262.33448,439.57856 -272.8125,445.6875 C -283.29052,451.79644 -293.25001,462.73794 -293.25,477.5625 C -293.25,480.03433 -292.91638,482.3985 -292.375,484.6875 C -295.47483,488.6343 -297.77365,492.3311 -299.8125,495.4375 C -299.8125,495.4375 -307.48122,506.62741 -315.78125,519.71875 C -319.93126,526.26442 -324.20669,533.21521 -327.78125,539.59375 C -331.35581,545.97229 -334.23853,550.38287 -336.125,558.21875 C -335.86792,557.15065 -335.35124,556.27642 -334.90625,555.3125 C -335.45179,556.50589 -336.07141,557.74274 -336.3125,558.9375 C -337.98715,567.20319 -333.9322,575.56893 -326.40625,579.375 C -276.52292,604.61955 -215.56076,609.68716 -148.1875,580.59375 C -144.93823,579.1886 -142.15361,576.89155 -140.15625,573.96875 L -139.75,573.375 C -136.4998,568.61245 -135.62376,562.61853 -137.375,557.125 C -141.33063,544.69154 -149.33852,530.98803 -156.90625,517.8125 C -164.47398,504.63697 -171.375,493.5625 -171.375,493.5625 C -171.39568,493.52076 -171.41651,493.47909 -171.4375,493.4375 C -173.39988,490.32313 -176.05646,486.15951 -180.0625,481.84375 C -179.85955,480.42307 -179.53125,479.04432 -179.53125,477.5625 C -179.53125,462.72204 -189.51716,451.76109 -200,445.65625 C -210.48284,439.55141 -222.92476,436.625 -236.40625,436.625 z M -332.875,551.3125 C -333.00595,551.48557 -333.64587,552.5432 -334.3125,553.8125 C -333.45852,552.22729 -332.71494,551.10097 -332.875,551.3125 z"
       transform="matrix(1.7259566e-2,-9.9648141e-3,9.9648141e-3,1.7259566e-2,-449.55912,-1148.7013)" />
    <path
       style="opacity:1;fill:#888a85;fill-opacity:1;stroke:none;stroke-width:2.30999994;stroke-linecap:round;stroke-linejoin:round;stroke-miterlimit:4;stroke-dasharray:none;stroke-dashoffset:0;stroke-opacity:1"
       d="M -449.10198,-1138.4866 C -449.46537,-1138.2768 -449.66073,-1137.9347 -449.53859,-1137.7231 C -449.49514,-1137.6479 -449.41727,-1137.5995 -449.31863,-1137.5775 C -449.41432,-1137.4923 -449.41379,-1137.3221 -449.42415,-1137.1412 C -449.42415,-1137.1412 -449.50814,-1136.0542 -449.4399,-1135.8232 C -449.43974,-1135.8227 -449.44003,-1135.8225 -449.43983,-1135.8219 C -448.4239,-1135.878 -447.44801,-1136.3279 -446.63091,-1137.4264 L -446.62982,-1137.4407 C -446.87606,-1137.6652 -447.77485,-1138.146 -447.77485,-1138.146 C -447.91103,-1138.2177 -448.07581,-1138.3001 -448.2038,-1138.2263 C -448.17567,-1138.3203 -448.17953,-1138.4097 -448.22201,-1138.4833 C -448.34416,-1138.6948 -448.73859,-1138.6964 -449.10198,-1138.4866 z"
       id="path3181" />
    <path
       sodipodi:type="arc"
       style="opacity:1;fill:#204a87;fill-opacity:1;stroke:none;stroke-width:2;stroke-linecap:round;stroke-linejoin:round;stroke-miterlimit:4;stroke-dasharray:none;stroke-dashoffset:0;stroke-opacity:1"
       id="path3196"
       sodipodi:cx="118.40826"
       sodipodi:cy="422.4863"
       sodipodi:rx="156.24286"
       sodipodi:ry="156.24286"
       d="M 274.65112,422.4863 A 156.24286,156.24286 0 1 1 -37.834602,422.4863 A 156.24286,156.24286 0 1 1 274.65112,422.4863 z"
       transform="matrix(2.5814235e-2,-1.4903855e-2,1.4903855e-2,2.5814235e-2,-460.66493,-1151.4557)" />
    <path
       transform="matrix(2.2218878e-2,-1.2828073e-2,1.2828073e-2,2.2218878e-2,-459.36222,-1150.1825)"
       d="M 274.65112,422.4863 A 156.24286,156.24286 0 1 1 -37.834602,422.4863 A 156.24286,156.24286 0 1 1 274.65112,422.4863 z"
       sodipodi:ry="156.24286"
       sodipodi:rx="156.24286"
       sodipodi:cy="422.4863"
       sodipodi:cx="118.40826"
       id="path3185"
       style="opacity:1;fill:#97c4f1;fill-opacity:1;stroke:none;stroke-width:2;stroke-linecap:round;stroke-linejoin:round;stroke-miterlimit:4;stroke-dasharray:none;stroke-dashoffset:0;stroke-opacity:1"
       sodipodi:type="arc" />
    <path
       sodipodi:type="arc"
       style="opacity:1;fill:#89afd7;fill-opacity:1;stroke:none;stroke-width:2;stroke-linecap:round;stroke-linejoin:round;stroke-miterlimit:4;stroke-dasharray:none;stroke-dashoffset:0;stroke-opacity:1"
       id="path2388"
       sodipodi:cx="118.40826"
       sodipodi:cy="422.4863"
       sodipodi:rx="156.24286"
       sodipodi:ry="156.24286"
       d="M 274.65112,422.4863 A 156.24286,156.24286 0 1 1 -37.834602,422.4863 A 156.24286,156.24286 0 1 1 274.65112,422.4863 z"
       transform="matrix(1.9426646e-2,-1.1215979e-2,1.1215979e-2,1.9426646e-2,-458.3505,-1149.1937)" />
    <path
       style="fill:#3465a4;fill-opacity:1;stroke:none;stroke-width:2.30999994;stroke-linecap:round;stroke-linejoin:round;stroke-miterlimit:4;stroke-dasharray:none;stroke-dashoffset:0;stroke-opacity:1"
       d="M -446.429,-1137.0933 C -446.41166,-1137.078 -446.39768,-1137.0638 -446.38764,-1137.0511 C -446.23352,-1136.8566 -442.12686,-1129.6712 -442.12686,-1129.6712 C -441.98911,-1129.4327 -442.06632,-1129.132 -442.29996,-1128.9971 L -444.2775,-1127.8554 C -444.51114,-1127.7205 -444.81011,-1127.804 -444.94784,-1128.0425 C -444.94784,-1128.0425 -449.15811,-1135.2268 -449.239,-1135.4743 C -448.05003,-1135.5451 -447.15629,-1136.1646 -446.429,-1137.0933 z"
       id="rect3160"
       sodipodi:nodetypes="cscccscc" />
    <path
       transform="matrix(2.1543655e-2,-6.2500966e-3,6.2500966e-3,2.1543655e-2,-456.50317,-1150.6761)"
       d="M 274.65112,422.4863 A 156.24286,156.24286 0 1 1 -37.834602,422.4863 A 156.24286,156.24286 0 1 1 274.65112,422.4863 z"
       sodipodi:ry="156.24286"
       sodipodi:rx="156.24286"
       sodipodi:cy="422.4863"
       sodipodi:cx="118.40826"
       id="path3198"
       style="opacity:1;fill:url(#linearGradient3206);fill-opacity:1;stroke:none;stroke-width:2;stroke-linecap:round;stroke-linejoin:round;stroke-miterlimit:4;stroke-dasharray:none;stroke-dashoffset:0;stroke-opacity:1"
       sodipodi:type="arc" />
  </g>
</svg>
